<svg id="visual" viewBox="0 0 900 600" width="900" height="600" xmlns="http://www.w3.org/2000/svg" xmlns:xlink="http://www.w3.org/1999/xlink" version="1.1"><g stroke-width="1" stroke-linejoin="bevel"><path d="M496 281L571 278L587 182Z" fill="#15384f" stroke="#15384f"></path><path d="M587 182L464 183L496 281Z" fill="#0c2435" stroke="#0c2435"></path><path d="M587 182L492 99L464 183Z" fill="#277297" stroke="#277297"></path><path d="M426 123L401 173L464 183Z" fill="#0c2435" stroke="#0c2435"></path><path d="M464 183L361 263L496 281Z" fill="#277297" stroke="#277297"></path><path d="M492 99L426 123L464 183Z" fill="#297ea6" stroke="#297ea6"></path><path d="M675 285L666 167L587 182Z" fill="#00101c" stroke="#00101c"></path><path d="M587 182L622 64L492 99Z" fill="#081a28" stroke="#081a28"></path><path d="M615 431L675 285L571 278Z" fill="#19435d" stroke="#19435d"></path><path d="M571 278L675 285L587 182Z" fill="#0c2435" stroke="#0c2435"></path><path d="M401 173L361 263L464 183Z" fill="#112e42" stroke="#112e42"></path><path d="M666 167L622 64L587 182Z" fill="#0c2435" stroke="#0c2435"></path><path d="M361 263L404 368L496 281Z" fill="#297ea6" stroke="#297ea6"></path><path d="M496 281L494 414L571 278Z" fill="#205a7a" stroke="#205a7a"></path><path d="M404 368L494 414L496 281Z" fill="#19435d" stroke="#19435d"></path><path d="M269 116L334 210L401 173Z" fill="#15384f" stroke="#15384f"></path><path d="M401 173L334 210L361 263Z" fill="#246688" stroke="#246688"></path><path d="M361 263L285 324L404 368Z" fill="#277297" stroke="#277297"></path><path d="M795 187L697 103L666 167Z" fill="#277297" stroke="#277297"></path><path d="M666 167L697 103L622 64Z" fill="#112e42" stroke="#112e42"></path><path d="M494 414L615 431L571 278Z" fill="#297ea6" stroke="#297ea6"></path><path d="M492 99L493 0L426 123Z" fill="#15384f" stroke="#15384f"></path><path d="M426 123L269 116L401 173Z" fill="#19435d" stroke="#19435d"></path><path d="M622 64L493 0L492 99Z" fill="#00101c" stroke="#00101c"></path><path d="M615 431L686 406L675 285Z" fill="#00101c" stroke="#00101c"></path><path d="M675 285L795 187L666 167Z" fill="#297ea6" stroke="#297ea6"></path><path d="M697 103L632 0L622 64Z" fill="#19435d" stroke="#19435d"></path><path d="M622 64L632 0L493 0Z" fill="#246688" stroke="#246688"></path><path d="M817 299L795 187L675 285Z" fill="#205a7a" stroke="#205a7a"></path><path d="M697 103L734 0L632 0Z" fill="#246688" stroke="#246688"></path><path d="M334 210L285 324L361 263Z" fill="#1d4e6b" stroke="#1d4e6b"></path><path d="M404 368L438 498L494 414Z" fill="#0c2435" stroke="#0c2435"></path><path d="M493 0L371 0L426 123Z" fill="#081a28" stroke="#081a28"></path><path d="M334 210L174 169L285 324Z" fill="#246688" stroke="#246688"></path><path d="M494 414L614 485L615 431Z" fill="#15384f" stroke="#15384f"></path><path d="M615 431L676 501L686 406Z" fill="#205a7a" stroke="#205a7a"></path><path d="M509 526L614 485L494 414Z" fill="#1d4e6b" stroke="#1d4e6b"></path><path d="M371 0L269 116L426 123Z" fill="#205a7a" stroke="#205a7a"></path><path d="M299 435L438 498L404 368Z" fill="#1d4e6b" stroke="#1d4e6b"></path><path d="M686 406L817 299L675 285Z" fill="#297ea6" stroke="#297ea6"></path><path d="M830 370L817 299L686 406Z" fill="#246688" stroke="#246688"></path><path d="M788 0L734 0L697 103Z" fill="#112e42" stroke="#112e42"></path><path d="M438 498L509 526L494 414Z" fill="#112e42" stroke="#112e42"></path><path d="M795 187L817 115L697 103Z" fill="#1d4e6b" stroke="#1d4e6b"></path><path d="M900 212L817 115L795 187Z" fill="#19435d" stroke="#19435d"></path><path d="M686 600L676 501L614 485Z" fill="#1d4e6b" stroke="#1d4e6b"></path><path d="M614 485L676 501L615 431Z" fill="#19435d" stroke="#19435d"></path><path d="M285 324L299 435L404 368Z" fill="#15384f" stroke="#15384f"></path><path d="M212 0L221 129L269 116Z" fill="#0c2435" stroke="#0c2435"></path><path d="M269 116L221 129L334 210Z" fill="#297ea6" stroke="#297ea6"></path><path d="M205 427L298 460L299 435Z" fill="#15384f" stroke="#15384f"></path><path d="M205 427L299 435L285 324Z" fill="#205a7a" stroke="#205a7a"></path><path d="M299 435L298 460L438 498Z" fill="#277297" stroke="#277297"></path><path d="M403 600L531 600L509 526Z" fill="#277297" stroke="#277297"></path><path d="M839 488L830 370L686 406Z" fill="#246688" stroke="#246688"></path><path d="M817 299L900 212L795 187Z" fill="#246688" stroke="#246688"></path><path d="M817 115L788 0L697 103Z" fill="#246688" stroke="#246688"></path><path d="M371 0L267 0L269 116Z" fill="#112e42" stroke="#112e42"></path><path d="M84 127L174 169L221 129Z" fill="#19435d" stroke="#19435d"></path><path d="M221 129L174 169L334 210Z" fill="#1d4e6b" stroke="#1d4e6b"></path><path d="M174 169L181 320L285 324Z" fill="#00101c" stroke="#00101c"></path><path d="M900 326L900 212L817 299Z" fill="#081a28" stroke="#081a28"></path><path d="M817 115L900 65L788 0Z" fill="#246688" stroke="#246688"></path><path d="M403 600L509 526L438 498Z" fill="#081a28" stroke="#081a28"></path><path d="M509 526L567 600L614 485Z" fill="#19435d" stroke="#19435d"></path><path d="M531 600L567 600L509 526Z" fill="#15384f" stroke="#15384f"></path><path d="M900 361L900 326L830 370Z" fill="#246688" stroke="#246688"></path><path d="M830 370L900 326L817 299Z" fill="#297ea6" stroke="#297ea6"></path><path d="M900 361L830 370L839 488Z" fill="#246688" stroke="#246688"></path><path d="M181 320L205 427L285 324Z" fill="#19435d" stroke="#19435d"></path><path d="M298 460L403 600L438 498Z" fill="#0c2435" stroke="#0c2435"></path><path d="M267 0L212 0L269 116Z" fill="#112e42" stroke="#112e42"></path><path d="M839 488L686 406L676 501Z" fill="#112e42" stroke="#112e42"></path><path d="M281 600L403 600L298 460Z" fill="#1d4e6b" stroke="#1d4e6b"></path><path d="M181 320L124 385L205 427Z" fill="#0c2435" stroke="#0c2435"></path><path d="M174 169L134 270L181 320Z" fill="#205a7a" stroke="#205a7a"></path><path d="M69 204L134 270L174 169Z" fill="#205a7a" stroke="#205a7a"></path><path d="M900 212L900 65L817 115Z" fill="#297ea6" stroke="#297ea6"></path><path d="M766 600L839 488L676 501Z" fill="#246688" stroke="#246688"></path><path d="M567 600L686 600L614 485Z" fill="#246688" stroke="#246688"></path><path d="M205 427L233 521L298 460Z" fill="#081a28" stroke="#081a28"></path><path d="M162 600L233 521L79 508Z" fill="#205a7a" stroke="#205a7a"></path><path d="M900 65L900 0L788 0Z" fill="#00101c" stroke="#00101c"></path><path d="M134 270L124 385L181 320Z" fill="#205a7a" stroke="#205a7a"></path><path d="M686 600L766 600L676 501Z" fill="#112e42" stroke="#112e42"></path><path d="M162 600L281 600L233 521Z" fill="#1d4e6b" stroke="#1d4e6b"></path><path d="M233 521L281 600L298 460Z" fill="#297ea6" stroke="#297ea6"></path><path d="M212 0L84 127L221 129Z" fill="#0c2435" stroke="#0c2435"></path><path d="M134 270L0 306L124 385Z" fill="#112e42" stroke="#112e42"></path><path d="M84 127L69 204L174 169Z" fill="#205a7a" stroke="#205a7a"></path><path d="M900 600L900 507L839 488Z" fill="#00101c" stroke="#00101c"></path><path d="M839 488L900 507L900 361Z" fill="#246688" stroke="#246688"></path><path d="M212 0L88 0L84 127Z" fill="#1d4e6b" stroke="#1d4e6b"></path><path d="M84 127L0 163L69 204Z" fill="#081a28" stroke="#081a28"></path><path d="M766 600L900 600L839 488Z" fill="#277297" stroke="#277297"></path><path d="M79 508L233 521L205 427Z" fill="#246688" stroke="#246688"></path><path d="M79 508L205 427L124 385Z" fill="#277297" stroke="#277297"></path><path d="M0 85L0 163L84 127Z" fill="#277297" stroke="#277297"></path><path d="M69 204L0 306L134 270Z" fill="#297ea6" stroke="#297ea6"></path><path d="M0 433L79 508L124 385Z" fill="#205a7a" stroke="#205a7a"></path><path d="M0 163L0 306L69 204Z" fill="#1d4e6b" stroke="#1d4e6b"></path><path d="M88 0L0 85L84 127Z" fill="#246688" stroke="#246688"></path><path d="M0 306L0 433L124 385Z" fill="#0c2435" stroke="#0c2435"></path><path d="M79 508L92 600L162 600Z" fill="#246688" stroke="#246688"></path><path d="M88 0L0 0L0 85Z" fill="#277297" stroke="#277297"></path><path d="M0 600L92 600L79 508Z" fill="#0c2435" stroke="#0c2435"></path><path d="M0 433L0 492L79 508Z" fill="#081a28" stroke="#081a28"></path><path d="M0 492L0 600L79 508Z" fill="#277297" stroke="#277297"></path></g></svg>